<?xml version="1.0" encoding="utf-8"?>
<svg xmlns="http://www.w3.org/2000/svg" width="400px" height="265.597px" viewBox="0 0 400 265.584" role="img" artist="Katerina Limpitsouni" source="https://undraw.co/">
  <path d="M 202.637 74.652 C 199.07 68.753 194.844 62.455 188.225 60.529 C 180.56 58.299 172.686 62.73 166.008 67.102 C 146.034 80.179 126.8 94.351 108.392 109.553 L 108.412 109.782 C 122.743 108.794 137.074 107.805 151.406 106.817 C 161.76 106.103 172.47 105.291 181.621 100.392 C 185.093 98.534 188.478 96.051 192.412 95.878 C 197.301 95.663 201.563 99.077 204.913 102.644 C 224.727 123.743 230.461 156.01 252.691 174.547 C 238.673 139.978 221.936 106.575 202.637 74.652 Z" fill="#f2f2f2"/>
  <path d="M 324.432 253.615 C 322.241 250.848 321.346 250.2 319.185 247.408 C 301.586 224.646 285.045 201.116 269.561 176.817 C 259.043 160.314 249.048 143.495 239.573 126.358 C 235.063 118.211 230.676 110 226.413 101.725 C 223.104 95.309 219.87 88.854 216.71 82.362 C 215.806 80.507 214.928 78.644 214.054 76.777 C 211.995 72.386 209.974 67.973 207.804 63.642 C 205.331 58.705 202.321 53.529 197.781 50.213 C 195.715 48.641 193.244 47.69 190.657 47.471 C 186.961 47.233 183.55 48.759 180.344 50.426 C 156.888 62.657 134.928 77.992 115.066 95.441 C 95.153 112.93 77.354 132.687 62.031 154.312 C 61.563 154.981 60.454 154.342 60.927 153.668 C 62.79 151.033 64.69 148.427 66.627 145.849 C 90.711 113.818 120.242 86.273 153.87 64.473 C 159.527 60.807 165.291 57.312 171.161 53.99 C 174.12 52.314 177.092 50.66 180.114 49.108 C 183.077 47.587 186.223 46.218 189.608 46.167 C 201.127 45.988 207.092 59.033 211.189 67.811 C 212.476 70.574 213.779 73.328 215.098 76.073 C 220.082 86.497 225.257 96.825 230.625 107.058 C 233.937 113.376 237.322 119.658 240.78 125.902 C 251.54 145.346 262.977 164.397 275.09 183.054 C 291.137 207.768 307.056 229.6 325.336 252.711 C 325.839 253.351 324.94 254.263 324.432 253.615 Z" fill="#e4e4e4"/>
  <path d="M 113.928 88.999 C 113.258 88.253 112.593 87.507 111.92 86.761 C 106.608 80.887 100.908 75.08 93.613 71.712 C 90.135 70.055 86.339 69.175 82.486 69.133 C 78.505 69.146 74.612 70.19 70.933 71.652 C 69.194 72.347 67.493 73.136 65.817 73.976 C 63.903 74.939 62.023 75.967 60.152 77.003 C 56.639 78.947 53.171 80.976 49.749 83.091 C 42.941 87.298 36.346 91.827 29.964 96.677 C 26.655 99.193 23.415 101.79 20.243 104.471 C 17.293 106.96 14.403 109.517 11.572 112.14 C 10.967 112.699 10.063 111.795 10.668 111.236 C 11.414 110.541 12.169 109.851 12.924 109.169 C 15.055 107.242 17.221 105.352 19.421 103.499 C 23.432 100.114 27.548 96.859 31.767 93.736 C 38.328 88.876 45.115 84.345 52.128 80.145 C 55.633 78.047 59.185 76.038 62.786 74.117 C 63.873 73.537 64.973 72.97 66.086 72.433 C 68.611 71.159 71.234 70.091 73.93 69.239 C 77.75 68.004 81.791 67.607 85.778 68.076 C 89.627 68.635 93.336 69.919 96.709 71.857 C 103.871 75.86 109.426 82.05 114.831 88.091 C 115.377 88.705 114.478 89.613 113.928 88.999 Z" fill="#e4e4e4"/>
  <path d="M 260.678 149.877 L 277.84 143.6 L 286.361 140.483 C 289.136 139.468 291.905 138.313 294.774 137.586 C 297.267 136.874 299.914 136.907 302.388 137.683 C 304.595 138.5 306.614 139.752 308.327 141.364 C 310.077 142.976 311.705 144.715 313.198 146.567 C 315.054 148.796 316.881 151.049 318.717 153.294 C 326.295 162.562 333.823 171.869 341.301 181.216 C 348.78 190.564 356.208 199.951 363.586 209.378 C 370.983 218.828 378.328 228.317 385.623 237.846 C 386.516 239.013 387.409 240.181 388.301 241.35 C 388.794 241.995 389.905 241.359 389.406 240.704 C 382.057 231.079 374.658 221.494 367.207 211.948 C 359.738 202.379 352.217 192.851 344.644 183.364 C 337.072 173.876 329.449 164.43 321.774 155.025 C 319.862 152.682 317.947 150.341 316.029 148.003 C 314.411 146.031 312.811 144.038 311.036 142.202 C 307.778 138.833 303.708 135.855 298.836 135.775 C 295.971 135.727 293.199 136.636 290.537 137.599 C 287.668 138.637 284.806 139.694 281.94 140.742 L 264.658 147.064 L 260.338 148.644 C 259.571 148.924 259.902 150.161 260.678 149.877 L 260.678 149.877 Z" fill="#e4e4e4"/>
  <path d="M 91.355 79.104 C 82.633 74.622 71.464 75.5 63.45 81.1 C 78.737 83.737 93.857 87.266 108.732 91.668 C 102.555 88.048 97.723 82.377 91.355 79.104 Z" fill="#f2f2f2"/>
  <path d="M 63.364 81.084 L 61.685 82.449 C 62.253 81.971 62.843 81.524 63.45 81.1 C 63.421 81.095 63.393 81.089 63.364 81.084 Z" fill="#f2f2f2"/>
  <path d="M 307.681 149.94 C 305.991 147.883 304.165 145.73 301.638 144.895 L 299.279 144.988 C 317.238 176.722 341.493 204.451 370.555 226.473 C 349.597 200.962 328.639 175.451 307.681 149.94 Z" fill="#f2f2f2"/>
  <path d="M 160.975 132.975 C 162.067 136.942 164.527 140.394 167.919 142.722 C 169.23 143.615 170.782 144.472 171.231 145.993 C 171.467 146.964 171.321 147.987 170.824 148.853 C 170.328 149.708 169.725 150.496 169.029 151.198 L 168.965 151.436 C 165.711 149.507 162.614 147.068 160.817 143.739 C 159.019 140.41 158.768 136.048 160.975 132.975" fill="#f2f2f2"/>
  <path d="M 269.331 227.379 C 270.423 231.346 272.882 234.799 276.274 237.126 C 277.586 238.019 279.138 238.876 279.586 240.398 C 279.822 241.368 279.677 242.392 279.18 243.258 C 278.684 244.113 278.081 244.9 277.384 245.602 L 277.321 245.84 C 274.066 243.911 270.97 241.472 269.172 238.143 C 267.374 234.814 267.123 230.452 269.331 227.379" fill="#f2f2f2"/>
  <path d="M 53.085 220.869 C 54.176 224.835 56.636 228.288 60.028 230.616 C 61.34 231.508 62.892 232.365 63.34 233.887 C 63.576 234.857 63.431 235.881 62.934 236.747 C 62.438 237.602 61.834 238.39 61.138 239.091 L 61.075 239.33 C 57.82 237.401 54.724 234.961 52.926 231.632 C 51.128 228.304 50.877 223.941 53.085 220.869" fill="#f2f2f2"/>
  <circle cx="301.93" cy="23.717" r="23.717" fill="#6c63ff"/>
  <path d="M 344.731 5.52 C 333.236 3.967 320.113 10.179 317.134 21.389 C 314.409 14.154 304.873 12.583 299.97 18.56 C 299.055 19.676 298.392 20.975 298.024 22.37 L 299.34 23.312 C 323.972 28.639 349.47 28.524 374.054 22.975 C 366.058 14.572 356.225 7.074 344.731 5.52 Z" fill="#f0f0f0"/>
  <path d="M 295.436 37.143 C 283.941 35.59 270.819 41.802 267.839 53.012 C 265.114 45.777 255.579 44.206 250.675 50.183 C 249.761 51.299 249.097 52.598 248.729 53.993 L 250.045 54.935 C 274.677 60.262 300.176 60.147 324.759 54.598 C 316.763 46.195 306.93 38.697 295.436 37.143 Z" fill="#f0f0f0"/>
  <path d="M 395.759 43.123 C 395.711 43.123 395.664 43.116 395.618 43.101 C 272.657 4.215 164.284 9.3 95.022 20.413 C 85.597 21.925 76.146 23.671 66.932 25.604 C 64.58 26.096 62.139 26.625 59.679 27.175 C 56.74 27.829 53.841 28.503 51.06 29.177 C 49.86 29.461 48.682 29.748 47.529 30.037 C 45.781 30.468 44.007 30.918 42.106 31.412 C 39.982 31.959 37.824 32.534 35.69 33.119 C 35.682 33.122 35.674 33.124 35.666 33.126 L 35.666 33.127 C 33.256 33.785 30.859 34.462 28.54 35.138 C 27.286 35.5 26.074 35.858 24.913 36.211 C 24.784 36.247 24.669 36.281 24.552 36.317 L 24.303 36.392 C 24.158 36.436 24.016 36.48 23.873 36.52 L 23.864 36.523 L 23.864 36.524 L 23.487 36.641 C 23.037 36.777 22.598 36.91 22.166 37.043 C 10.751 40.561 4.476 43.065 4.415 43.089 C 4.082 43.222 3.73 42.946 3.781 42.592 C 3.805 42.427 3.914 42.288 4.068 42.226 C 4.131 42.201 10.436 39.685 21.893 36.154 C 22.326 36.02 22.766 35.887 23.218 35.751 L 23.568 35.642 C 23.58 35.637 23.592 35.634 23.605 35.63 C 23.747 35.589 23.888 35.546 24.032 35.503 L 24.282 35.427 C 24.406 35.389 24.529 35.352 24.655 35.317 C 25.807 34.967 27.023 34.609 28.281 34.245 C 30.6 33.568 33 32.891 35.412 32.232 C 35.419 32.229 35.427 32.227 35.435 32.225 L 35.435 32.225 C 37.576 31.637 39.742 31.061 41.873 30.511 C 43.777 30.017 45.554 29.566 47.305 29.134 C 48.464 28.845 49.643 28.558 50.844 28.272 C 53.627 27.597 56.532 26.923 59.476 26.267 C 61.941 25.716 64.385 25.187 66.741 24.694 C 75.969 22.758 85.435 21.009 94.875 19.495 C 164.236 8.366 272.764 3.272 395.899 42.215 C 396.24 42.322 396.337 42.759 396.073 43.001 C 395.987 43.079 395.875 43.123 395.759 43.123 Z" fill="#ccc"/>
  <path d="M 122.302 195.245 C 122.141 194.774 121.87 194.348 121.511 194.003 C 121.379 193.88 121.236 193.77 121.083 193.673 C 119.869 192.864 118.056 192.682 116.902 193.673 C 116.786 193.773 116.679 193.884 116.582 194.003 C 116.237 194.426 115.884 194.84 115.521 195.245 C 114.926 195.924 114.317 196.579 113.68 197.216 C 113.498 197.393 113.317 197.574 113.131 197.751 C 113.024 197.858 112.917 197.96 112.81 198.063 C 112.401 198.453 111.982 198.83 111.559 199.202 C 111.336 199.402 111.113 199.597 110.885 199.788 C 110.545 200.072 110.206 200.355 109.862 200.63 C 109.829 200.653 109.797 200.676 109.764 200.704 C 109.755 200.709 109.75 200.718 109.741 200.723 C 109.736 200.723 109.731 200.723 109.727 200.732 C 109.714 200.737 109.703 200.745 109.694 200.755 C 109.592 200.825 109.522 200.872 109.471 200.913 C 109.49 200.904 109.508 200.89 109.527 200.881 C 109.443 200.946 109.355 201.011 109.271 201.076 C 108.457 201.676 107.625 202.253 106.774 202.792 C 104.668 204.14 102.457 205.314 100.161 206.303 C 100.007 206.364 99.849 206.429 99.691 206.489 C 93.68 208.952 87.16 209.913 80.694 209.289 C 80.034 209.238 79.373 209.168 78.713 209.08 C 77.95 208.968 77.192 208.833 76.439 208.68 C 73.571 208.108 70.764 207.26 68.059 206.15 C 64.674 204.6 61.455 202.712 58.451 200.514 C 57.986 200.183 57.516 199.853 57.047 199.532 C 57.581 198.221 58.107 196.909 58.618 195.589 C 58.874 194.952 59.121 194.315 59.362 193.673 C 61.264 188.729 63.05 183.739 64.762 178.731 C 66.492 173.657 68.124 168.554 69.659 163.422 C 69.817 162.901 69.97 162.38 70.119 161.859 C 70.923 159.148 71.695 156.43 72.435 153.707 C 72.505 153.442 72.579 153.181 72.644 152.916 C 72.858 152.135 73.067 151.354 73.272 150.572 C 73.737 148.81 72.686 146.703 70.835 146.28 C 68.983 145.805 67.087 146.882 66.547 148.717 C 66.347 149.47 66.147 150.219 65.943 150.972 C 64.962 154.614 63.929 158.242 62.846 161.859 C 62.688 162.38 62.529 162.901 62.371 163.422 C 59.981 171.299 57.357 179.098 54.498 186.818 C 54.154 187.753 53.805 188.684 53.452 189.613 C 53.28 190.069 53.108 190.524 52.931 190.98 C 52.591 191.878 52.243 192.775 51.894 193.673 C 51.694 194.198 51.489 194.724 51.285 195.245 C 51.15 195.575 51.02 195.905 50.889 196.23 C 49.563 195.754 48.19 195.424 46.792 195.245 L 46.569 195.217 C 45.486 195.086 44.39 195.096 43.309 195.245 C 40.034 195.627 37.097 197.443 35.292 200.202 C 33.073 203.694 33.101 208.689 36.212 211.656 C 39.417 214.711 44.267 214.688 48.039 212.777 C 50.037 211.695 51.723 210.116 52.931 208.191 C 53.394 207.494 53.819 206.772 54.205 206.029 C 54.303 206.094 54.4 206.159 54.498 206.229 C 54.87 206.489 55.242 206.754 55.61 207.015 C 57.75 208.566 60.006 209.951 62.357 211.158 C 67.413 213.672 72.856 215.318 78.457 216.027 C 78.583 216.041 78.704 216.06 78.829 216.074 C 79.448 216.153 80.071 216.213 80.694 216.265 C 89.633 216.938 98.583 215.109 106.541 210.982 C 107.216 210.633 107.884 210.267 108.546 209.884 C 109.573 209.289 110.578 208.656 111.559 207.987 C 112.094 207.624 112.615 207.257 113.131 206.871 C 115.387 205.209 117.489 203.349 119.414 201.313 C 120.144 200.546 120.843 199.754 121.511 198.937 C 122.143 198.269 122.507 197.392 122.534 196.472 C 122.531 196.052 122.452 195.637 122.302 195.245 Z M 45.295 206.322 C 45.392 206.252 45.49 206.178 45.583 206.103 C 45.555 206.173 45.42 206.252 45.295 206.322 L 45.295 206.322 Z M 46.788 204.82 C 46.681 204.941 46.583 205.062 46.476 205.183 C 46.151 205.547 45.801 205.889 45.43 206.206 C 45.379 206.252 45.323 206.299 45.267 206.341 C 45.264 206.341 45.262 206.343 45.262 206.345 C 45.195 206.375 45.13 206.409 45.067 206.448 C 44.867 206.568 44.662 206.68 44.453 206.782 C 44.043 206.933 43.622 207.05 43.193 207.131 C 42.863 207.155 42.532 207.158 42.202 207.14 L 42.193 207.14 C 41.965 207.09 41.74 207.028 41.519 206.954 C 41.407 206.899 41.3 206.834 41.193 206.768 C 41.151 206.731 41.114 206.694 41.091 206.671 C 41.045 206.629 41.003 206.584 40.965 206.536 C 40.965 206.533 40.963 206.531 40.961 206.531 C 40.909 206.438 40.854 206.345 40.803 206.252 C 40.8 206.25 40.798 206.246 40.798 206.243 C 40.761 206.127 40.728 206.006 40.7 205.885 C 40.69 205.673 40.692 205.46 40.705 205.248 C 40.767 204.951 40.851 204.658 40.956 204.373 C 41.05 204.171 41.157 203.976 41.277 203.787 C 41.286 203.769 41.333 203.694 41.384 203.611 C 41.388 203.606 41.388 203.606 41.388 203.601 C 41.458 203.522 41.528 203.439 41.602 203.364 C 41.728 203.225 41.863 203.104 41.998 202.978 C 42.26 202.807 42.532 202.65 42.812 202.509 C 43.255 202.351 43.711 202.228 44.174 202.141 C 44.857 202.087 45.543 202.093 46.225 202.16 C 46.871 202.272 47.508 202.429 48.132 202.63 C 47.754 203.363 47.323 204.069 46.843 204.741 C 46.825 204.769 46.806 204.797 46.788 204.82 L 46.788 204.82 Z M 41.616 203.29 C 41.575 203.356 41.527 203.416 41.472 203.471 C 41.509 203.403 41.558 203.341 41.616 203.29 L 41.616 203.29 Z" fill="#3f3d56"/>
  <path d="M 108.322 147.75 C 108.281 149.21 108.239 150.67 108.197 152.13 C 108.108 155.372 108.017 158.615 107.922 161.859 C 107.825 165.51 107.723 169.159 107.616 172.806 C 107.564 174.69 107.512 176.573 107.457 178.456 C 107.313 183.53 107.171 188.602 107.03 193.673 C 107.016 194.198 106.997 194.719 106.983 195.245 C 106.913 197.761 106.844 200.276 106.774 202.792 C 106.695 205.522 106.617 208.252 106.541 210.982 C 106.485 213.028 106.428 215.076 106.369 217.125 C 105.951 231.974 105.532 246.823 105.114 261.672 C 105.077 263.583 103.537 265.123 101.626 265.159 C 99.706 265.144 98.153 263.591 98.138 261.672 C 98.37 253.319 98.606 244.967 98.845 236.615 C 99.054 229.063 99.266 221.51 99.482 213.958 C 99.552 211.47 99.621 208.98 99.691 206.489 C 99.798 202.741 99.904 198.993 100.007 195.245 C 100.021 194.719 100.04 194.198 100.054 193.673 C 100.063 193.212 100.077 192.757 100.091 192.296 C 100.296 185.018 100.5 177.739 100.705 170.458 C 100.789 167.593 100.869 164.727 100.947 161.859 C 101.04 158.59 101.133 155.322 101.226 152.056 C 101.268 150.619 101.305 149.187 101.347 147.75 C 101.383 145.839 102.924 144.298 104.835 144.262 C 106.754 144.277 108.307 145.83 108.322 147.75 Z" fill="#3f3d56"/>
  <path d="M 299.655 148.717 C 295.998 162.566 291.626 176.217 286.559 189.614 C 285.161 193.309 283.73 196.998 282.201 200.641 L 282.552 199.808 C 281.87 201.543 280.998 203.198 279.953 204.743 C 279.882 204.843 279.809 204.941 279.736 205.039 C 280.097 204.577 280.166 204.486 279.942 204.765 C 279.824 204.905 279.707 205.045 279.585 205.181 C 279.259 205.546 278.91 205.888 278.539 206.206 C 278.446 206.286 278.351 206.364 278.254 206.441 L 278.691 206.102 C 278.64 206.221 278.285 206.379 278.174 206.447 C 277.816 206.663 277.442 206.853 277.056 207.014 L 277.889 206.662 C 277.256 206.917 276.596 207.098 275.921 207.202 L 276.848 207.077 C 276.186 207.169 275.514 207.176 274.85 207.099 L 275.777 207.223 C 275.233 207.148 274.701 207.005 274.193 206.797 L 275.027 207.148 C 274.756 207.03 274.495 206.891 274.246 206.732 C 274.12 206.649 273.732 206.356 274.239 206.743 C 274.766 207.146 274.307 206.778 274.198 206.671 C 274.108 206.581 274.026 206.485 273.938 206.394 C 273.528 205.973 274.401 207.118 274.122 206.626 C 273.973 206.379 273.837 206.125 273.714 205.865 L 274.066 206.698 C 273.906 206.301 273.792 205.887 273.727 205.465 L 273.852 206.392 C 273.785 205.866 273.785 205.334 273.85 204.809 L 273.726 205.736 C 273.811 205.149 273.966 204.574 274.188 204.024 L 273.837 204.857 C 273.991 204.488 274.175 204.13 274.384 203.789 C 274.481 203.612 274.595 203.445 274.723 203.29 C 274.746 203.298 274.133 203.994 274.458 203.642 C 274.544 203.55 274.623 203.454 274.709 203.362 C 274.847 203.216 274.994 203.083 275.14 202.945 C 275.625 202.482 274.46 203.394 275.02 203.028 C 275.427 202.761 275.854 202.528 276.299 202.331 L 275.466 202.683 C 276.21 202.377 276.991 202.167 277.789 202.059 L 276.861 202.184 C 277.86 202.069 278.87 202.081 279.866 202.22 L 278.939 202.095 C 280.2 202.286 281.433 202.633 282.609 203.127 L 281.776 202.776 C 284.282 203.852 286.502 205.449 288.718 207.016 C 290.858 208.566 293.113 209.951 295.464 211.158 C 300.52 213.672 305.963 215.318 311.565 216.029 C 327.89 218.029 344.112 211.589 354.621 198.937 C 355.252 198.268 355.616 197.391 355.643 196.471 C 355.636 195.547 355.27 194.663 354.621 194.005 C 353.342 192.83 350.924 192.499 349.689 194.005 C 348.518 195.435 347.258 196.79 345.919 198.063 C 345.293 198.657 344.651 199.232 343.992 199.788 C 343.616 200.107 343.235 200.418 342.848 200.724 C 342.665 200.868 342.095 201.253 342.97 200.632 C 342.77 200.774 342.577 200.93 342.379 201.076 C 339.451 203.235 336.277 205.04 332.924 206.454 L 333.757 206.103 C 330.159 207.612 326.381 208.647 322.516 209.182 L 323.444 209.058 C 319.468 209.581 315.441 209.575 311.467 209.04 L 312.394 209.165 C 308.421 208.619 304.536 207.561 300.835 206.016 L 301.668 206.368 C 298.096 204.787 294.707 202.824 291.559 200.512 C 289.921 199.299 288.194 198.212 286.391 197.26 C 284.292 196.187 282.018 195.496 279.677 195.219 C 275.288 194.702 270.815 196.412 268.402 200.204 C 266.181 203.694 266.209 208.688 269.319 211.656 C 272.522 214.713 277.373 214.687 281.148 212.775 C 284.784 210.933 286.967 207.108 288.503 203.501 C 291.959 195.384 295.018 187.079 297.869 178.731 C 300.689 170.473 303.246 162.131 305.541 153.706 C 305.825 152.662 306.106 151.618 306.382 150.572 C 306.847 148.81 305.795 146.703 303.946 146.281 C 302.093 145.804 300.195 146.882 299.655 148.717 L 299.655 148.717 Z" fill="#3f3d56"/>
  <path d="M 334.456 147.749 L 333.2 192.297 L 331.951 236.614 L 331.245 261.672 C 331.262 263.591 332.814 265.143 334.733 265.16 C 336.644 265.123 338.184 263.583 338.221 261.672 L 339.476 217.124 L 340.725 172.808 L 341.431 147.749 C 341.415 145.83 339.863 144.278 337.943 144.261 C 336.033 144.298 334.493 145.839 334.456 147.749 L 334.456 147.749 Z" fill="#3f3d56"/>
  <path d="M 213.731 249.234 L 214.814 249.234 L 214.814 199.92 L 240.079 199.92 L 240.079 198.84 L 214.814 198.84 L 214.814 178.031 L 234.325 178.031 C 234.039 177.668 233.745 177.309 233.442 176.954 L 214.814 176.954 L 214.814 163.211 C 214.456 163.058 214.095 162.911 213.731 162.772 L 213.731 176.954 L 192.501 176.954 L 192.501 159.345 C 192.137 159.362 191.778 159.387 191.417 159.417 L 191.417 176.954 L 174.48 176.954 L 174.48 163.816 C 174.117 163.977 173.758 164.146 173.403 164.324 L 173.403 176.954 L 159.165 176.954 L 159.165 178.031 L 173.403 178.031 L 173.403 198.84 L 159.165 198.84 L 159.165 199.92 L 173.403 199.92 L 173.403 249.234 L 174.48 249.234 L 174.48 199.92 C 183.835 199.918 191.419 207.502 191.417 216.857 L 191.417 249.234 L 192.501 249.234 L 192.501 199.92 L 213.731 199.92 L 213.731 249.234 Z M 174.48 198.84 L 174.48 178.031 L 191.417 178.031 L 191.417 198.84 L 174.48 198.84 Z M 192.501 198.84 L 192.501 178.031 L 192.925 178.031 C 204.417 178.032 213.732 187.348 213.731 198.84 L 192.501 198.84 Z" opacity="0.2"/>
  <path d="M 207.117 234.448 C 205.753 240.53 202.487 246.02 197.792 250.12 C 197.448 250.418 197.104 250.706 196.746 250.99 C 195.876 251.069 195.013 251.149 194.156 251.231 C 193.444 251.296 192.742 251.366 192.045 251.431 L 191.919 251.445 L 191.831 250.683 L 191.477 247.595 C 188.7 243.06 188.135 237.509 189.943 232.509 C 191.17 229.198 193.393 226.272 195.579 223.371 C 198.597 219.362 201.531 215.4 201.638 210.512 C 203.123 212.412 204.358 214.496 205.312 216.711 C 204.412 217.135 203.603 217.73 202.931 218.464 C 202.741 218.674 202.55 218.967 202.68 219.218 C 202.792 219.432 203.071 219.483 203.313 219.511 C 203.894 219.571 204.48 219.632 205.061 219.692 C 205.526 219.743 205.991 219.79 206.456 219.841 C 207.019 221.687 207.4 223.584 207.596 225.505 C 207.909 228.493 207.747 231.511 207.117 234.448 Z" fill="#3f3d56"/>
  <path d="M 222.556 222.259 C 219.812 224.254 218.208 227.123 216.962 230.286 C 215.684 230.695 214.535 231.429 213.627 232.416 C 213.437 232.625 213.246 232.918 213.376 233.169 C 213.488 233.383 213.767 233.434 214.009 233.462 C 214.59 233.522 215.176 233.583 215.757 233.643 C 214.511 237.382 213.367 241.252 211.163 244.409 C 209.697 246.494 207.786 248.227 205.568 249.483 C 204.963 249.827 204.339 250.136 203.699 250.408 C 201.336 250.59 199.019 250.783 196.746 250.99 C 195.876 251.069 195.013 251.149 194.156 251.231 C 193.444 251.296 192.742 251.366 192.045 251.431 C 192.04 251.176 192.04 250.92 192.045 250.664 C 192.192 243.851 194.698 237.299 199.136 232.127 C 199.346 231.886 199.56 231.648 199.778 231.411 C 202.027 229.009 204.671 227.012 207.596 225.505 C 212.204 223.109 217.369 221.988 222.556 222.259 Z" fill="#6c63ff"/>
  <path d="M 194.96 248.846 L 194.426 250.427 L 194.156 251.231 C 193.444 251.296 192.742 251.366 192.045 251.431 L 191.919 251.445 C 191.147 251.524 190.38 251.603 189.612 251.682 C 189.412 251.45 189.212 251.213 189.017 250.971 C 178.912 238.734 180.589 220.633 192.77 210.461 C 192.156 213.674 192.872 216.753 194.049 219.808 C 193.923 219.859 193.802 219.911 193.686 219.966 C 192.786 220.39 191.977 220.986 191.305 221.72 C 191.114 221.929 190.924 222.222 191.054 222.473 C 191.166 222.687 191.445 222.738 191.686 222.766 C 192.268 222.826 192.854 222.887 193.435 222.947 C 193.9 222.998 194.365 223.045 194.83 223.096 C 195.049 223.119 195.267 223.143 195.486 223.166 C 195.518 223.236 195.546 223.301 195.579 223.371 C 196.904 226.244 198.332 229.132 199.136 232.127 C 199.338 232.879 199.497 233.641 199.611 234.411 C 200.336 239.679 198.625 244.991 194.96 248.846 Z" fill="#6c63ff"/>
  <path d="M 241.771 181.396 C 237.767 173.587 231.565 167.016 224.27 162.188 C 216.952 157.366 208.555 154.43 199.826 153.64 C 198.682 153.536 197.535 153.475 196.385 153.458 C 195.027 153.437 174.591 159.332 167.745 164.145 C 160.902 168.9 155.274 175.197 151.313 182.527 C 147.359 189.898 145.415 198.179 145.674 206.539 C 146.013 214.949 148.357 223.157 152.512 230.478 C 156.609 237.775 162.427 243.96 169.46 248.496 C 176.593 253.047 183.758 265.115 192.179 265.541 C 200.664 265.97 210.341 254.587 218.08 251.13 C 225.819 247.645 232.509 242.193 237.484 235.317 C 242.319 228.578 245.446 220.767 246.599 212.554 C 247.796 204.144 247.238 195.471 244.366 187.434 C 243.629 185.368 242.762 183.352 241.771 181.396 C 240.943 179.766 238.517 179.166 236.999 180.145 C 235.374 181.145 234.823 183.247 235.748 184.917 C 236.234 185.874 236.686 186.847 237.103 187.836 L 236.752 187.003 C 238.333 190.805 239.408 194.797 239.95 198.879 L 239.825 197.952 C 240.401 202.38 240.391 206.865 239.794 211.291 L 239.919 210.363 C 239.316 214.789 238.135 219.115 236.406 223.233 L 236.757 222.4 C 235.868 224.501 234.831 226.536 233.655 228.491 C 233.059 229.479 232.426 230.443 231.757 231.385 C 231.463 231.798 231.16 232.204 230.855 232.608 C 230.457 233.136 231.398 231.918 230.987 232.436 C 230.917 232.525 230.847 232.613 230.776 232.701 C 230.565 232.965 230.351 233.227 230.134 233.486 C 228.684 235.216 227.102 236.83 225.401 238.315 C 224.978 238.685 224.547 239.046 224.11 239.399 C 223.892 239.575 223.676 239.758 223.449 239.922 C 223.457 239.916 224.183 239.364 223.754 239.684 C 223.619 239.785 223.485 239.887 223.349 239.988 C 222.447 240.656 221.521 241.29 220.571 241.89 C 218.384 243.268 216.089 244.468 213.709 245.477 L 214.542 245.126 C 210.437 246.854 206.122 248.035 201.708 248.638 L 202.636 248.513 C 198.224 249.109 193.754 249.117 189.34 248.537 L 190.268 248.661 C 186.257 248.123 182.333 247.062 178.597 245.506 L 179.43 245.858 C 177.266 244.944 175.18 243.857 173.191 242.607 C 172.207 241.987 171.249 241.328 170.316 240.631 C 170.182 240.532 170.051 240.431 169.918 240.331 C 169.492 240.01 170.224 240.568 170.23 240.572 C 169.982 240.394 169.744 240.204 169.516 240.002 C 169.065 239.635 168.622 239.26 168.185 238.876 C 166.439 237.338 164.808 235.673 163.305 233.896 C 162.929 233.451 162.561 233 162.201 232.542 C 162.045 232.344 161.761 231.942 162.389 232.788 C 162.307 232.677 162.221 232.568 162.137 232.457 C 161.937 232.191 161.739 231.923 161.544 231.653 C 160.861 230.708 160.212 229.74 159.597 228.749 C 158.206 226.505 156.992 224.156 155.967 221.723 L 156.318 222.556 C 154.64 218.563 153.492 214.367 152.905 210.076 L 153.029 211.003 C 152.499 207.047 152.492 203.039 153.007 199.081 L 152.882 200.008 C 153.41 196.175 154.442 192.429 155.949 188.866 L 155.597 189.699 C 156.546 187.469 157.664 185.314 158.943 183.255 C 159.584 182.225 160.262 181.22 160.979 180.24 C 161.142 180.017 161.307 179.796 161.473 179.576 C 161.624 179.377 162.038 178.881 161.331 179.756 C 161.401 179.671 161.467 179.582 161.536 179.496 C 161.929 178.997 162.332 178.507 162.745 178.024 C 164.306 176.196 165.998 174.483 167.806 172.899 C 168.263 172.498 168.727 172.106 169.198 171.723 C 169.413 171.548 169.628 171.376 169.845 171.205 C 169.932 171.137 170.02 171.07 170.107 171.001 C 169.178 171.74 169.848 171.202 170.059 171.044 C 171.031 170.316 172.028 169.625 173.052 168.97 C 175.327 167.514 177.721 166.253 180.207 165.199 L 179.374 165.551 C 182.983 164.035 198.972 160.459 201.88 160.849 L 200.952 160.725 C 205.227 161.321 209.404 162.475 213.378 164.158 L 212.545 163.806 C 214.559 164.661 216.516 165.644 218.405 166.749 C 219.348 167.303 220.274 167.886 221.18 168.499 C 221.609 168.79 222.033 169.086 222.453 169.39 C 222.663 169.541 222.872 169.695 223.079 169.85 C 223.195 169.936 223.309 170.023 223.424 170.109 C 223.907 170.471 222.758 169.585 223.265 169.985 C 224.961 171.317 226.571 172.755 228.087 174.288 C 228.831 175.046 229.55 175.828 230.243 176.635 C 230.598 177.048 230.947 177.468 231.288 177.894 C 231.457 178.105 232.034 178.871 231.327 177.933 C 231.5 178.162 231.675 178.39 231.845 178.621 C 233.315 180.61 234.62 182.716 235.748 184.917 C 236.582 186.543 238.997 187.15 240.52 186.168 C 242.146 185.168 242.697 183.065 241.771 181.396 Z" fill="#3f3d56"/>
  <path d="M 201.131 238.315 C 199.779 238.377 198.867 236.953 199.489 235.751 C 199.583 235.57 199.707 235.407 199.857 235.268 C 199.901 235.092 199.933 234.966 199.977 234.79 C 199.961 234.751 199.945 234.713 199.929 234.675 C 198.311 230.816 187.985 241.573 187.538 245.199 C 187.341 246.802 187.424 248.427 187.783 250.002 C 184.438 242.706 182.701 234.775 182.69 226.749 C 182.69 224.734 182.801 222.722 183.025 220.72 C 183.211 219.079 183.467 217.45 183.796 215.832 C 185.589 207.055 189.438 198.829 195.027 191.828 C 198.224 192.007 201.026 191.52 201.296 185.324 C 201.344 184.222 202.162 183.268 202.342 182.183 C 202.037 182.223 201.726 182.248 201.421 182.268 C 201.326 182.273 201.226 182.278 201.131 182.283 L 201.095 182.284 C 199.756 182.344 198.854 180.932 199.471 179.742 C 199.526 179.637 199.591 179.538 199.665 179.447 C 199.797 179.285 199.928 179.123 200.06 178.961 C 200.261 178.711 200.466 178.465 200.666 178.215 C 200.689 178.191 200.711 178.166 200.731 178.14 C 200.961 177.855 201.191 177.575 201.421 177.29 C 201.001 176.638 200.436 176.092 199.77 175.694 C 197.464 174.343 194.282 175.279 192.616 177.365 C 190.945 179.451 190.63 182.378 191.21 184.984 C 191.781 187.202 192.725 189.307 194.002 191.208 C 193.877 191.368 193.747 191.523 193.622 191.683 C 191.335 194.623 189.343 197.78 187.672 201.109 C 188.145 197.417 182.365 184.084 180.13 181.26 C 177.445 177.868 171.94 179.349 171.467 183.649 C 171.463 183.69 171.458 183.732 171.454 183.773 C 171.786 183.961 172.111 184.16 172.429 184.37 C 173.955 185.39 173.805 187.679 172.159 188.491 C 171.941 188.598 171.708 188.672 171.467 188.709 L 171.419 188.716 C 166.975 195.061 181.221 211.576 184.787 207.868 C 183.108 212.624 182.055 217.578 181.655 222.606 C 181.428 225.572 181.441 228.552 181.695 231.516 L 181.68 231.411 C 180.887 224.955 167.295 215.357 163.326 216.156 C 161.04 216.617 158.787 216.512 159.135 218.819 C 159.14 218.855 159.146 218.892 159.152 218.929 C 159.768 219.18 160.367 219.469 160.948 219.795 C 161.28 219.982 161.605 220.181 161.922 220.391 C 163.449 221.411 163.299 223.7 161.652 224.512 C 161.435 224.619 161.201 224.693 160.961 224.73 L 160.912 224.737 C 160.877 224.742 160.847 224.747 160.812 224.752 C 158.79 231.712 173.791 242.945 182.91 239.371 L 182.915 239.371 C 183.819 243.298 185.129 247.121 186.823 250.778 L 200.781 250.778 C 200.831 250.623 200.876 250.462 200.921 250.307 C 199.629 250.389 198.332 250.311 197.059 250.077 C 198.094 248.806 199.13 247.526 200.165 246.255 C 200.189 246.231 200.21 246.206 200.23 246.18 C 200.756 245.53 201.286 244.884 201.811 244.234 L 201.812 244.233 C 201.84 242.239 201.611 240.251 201.131 238.315 L 201.131 238.315 Z M 185.147 206.872 L 185.154 206.862 L 185.147 206.882 L 185.147 206.872 Z M 182.055 234.743 L 181.935 234.473 C 181.94 234.278 181.94 234.083 181.935 233.883 C 181.935 233.828 181.925 233.773 181.925 233.718 C 181.97 234.063 182.01 234.408 182.06 234.753 L 182.055 234.743 Z" fill="#3f3d56"/>
  <circle cx="44.295" cy="204.155" r="5.115" fill="#3f3d56"/>
  <circle cx="105.681" cy="259.96" r="5.115" fill="#3f3d56"/>
  <circle cx="338.669" cy="259.96" r="5.115" fill="#3f3d56"/>
  <circle cx="351.225" cy="194.854" r="5.115" fill="#3f3d56"/>
  <circle cx="336.343" cy="147.419" r="5.115" fill="#3f3d56"/>
  <path d="M 122.888 194.854 C 122.878 198.774 118.63 201.213 115.24 199.246 C 111.85 197.278 111.861 192.378 115.26 190.426 C 118.28 188.692 122.111 190.434 122.79 193.849 C 122.856 194.18 122.888 194.517 122.888 194.854 Z" fill="#3f3d56"/>
  <circle cx="225.198" cy="162.301" r="5.115" fill="#3f3d56"/>
  <path d="M 174.508 162.301 C 174.498 166.22 170.25 168.66 166.86 166.692 C 163.47 164.725 163.481 159.825 166.88 157.873 C 169.9 156.139 173.731 157.881 174.41 161.296 C 174.476 161.627 174.508 161.964 174.508 162.301 Z" fill="#3f3d56"/>
  <path d="M 108.471 147.419 C 108.462 151.339 104.213 153.779 100.823 151.811 C 97.433 149.843 97.445 144.944 100.844 142.992 C 103.864 141.258 107.695 142.999 108.374 146.415 C 108.439 146.746 108.472 147.082 108.471 147.419 Z" fill="#3f3d56"/>
  <circle cx="278.678" cy="206.015" r="5.115" fill="#3f3d56"/>
  <circle cx="198.225" cy="157.185" r="7.441" fill="#3f3d56"/>
  <path d="M 399.446 265.467 L 0.554 265.61 C 0.127 265.61 -0.139 265.148 0.074 264.779 C 0.173 264.608 0.356 264.502 0.554 264.502 L 399.446 264.359 C 399.873 264.361 400.138 264.823 399.923 265.191 C 399.825 265.361 399.643 265.466 399.446 265.467 Z" fill="#cacaca"/>
</svg>