<?xml version="1.0" encoding="utf-8"?>
<svg xmlns="http://www.w3.org/2000/svg" viewBox="0 0 64 64" width="64px" height="64px" xmlns:bx="https://boxy-svg.com">
  <g style="" transform="matrix(0.12359, 0, 0, 0.12359, 0.499997, 0.499997)" id="object-0">
    <path d="M 254.875 254.875 m -254.875 0 a 254.875 254.875 0 1 0 509.75 0 a 254.875 254.875 0 1 0 -509.75 0 Z M 254.875 254.875 m -196.058 0 a 196.058 196.058 0 0 1 392.116 0 a 196.058 196.058 0 0 1 -392.116 0 Z" bx:shape="ring 254.875 254.875 196.058 196.058 254.875 254.875 1@b9d7e39f" style="fill: rgb(167, 170, 173);" id="object-1"/>
    <path d="M 102.458 451.233 L 102.461 451.233 L 145.594 349.349 L 145.665 349.35 C 149.741 340.686 154.109 337.693 157.432 343.767 C 158.253 345.264 158.939 347.201 159.505 349.481 L 159.59 349.482 L 167.536 419.438 L 151.615 457.046 L 151.606 457.046 L 140.848 483.076 C 126.371 475.772 112.681 467.134 99.941 457.323 L 100.055 457.046 L 100 457.046 L 102.337 451.526 Z M 166.363 273.523 L 166.237 273.722 L 138.97 28.744 L 138.935 28.744 L 138.875 28.231 C 138.887 28.225 138.899 28.219 138.911 28.212 L 138.903 28.141 L 139.049 28.141 C 155.215 19.784 172.381 13.119 190.317 8.377 L 197.791 374.126 L 233.104 301.197 C 233.312 300.946 233.525 300.704 233.743 300.471 C 239.755 294.042 247.533 296.595 254.727 304.864 L 255.053 304.844 L 277.898 327.989 L 228.498 406.311 C 213.697 427.346 201.187 440.412 189.888 429.569 C 185.631 425.486 183.715 418.993 182.167 411.082 L 168.264 288.69 L 168.054 288.714 Z M 436.586 76.281 L 436.657 76.281 L 286.768 313.925 L 246.631 273.261 L 366.313 26.09 C 392.551 38.775 416.289 55.819 436.586 76.281 Z M 404.388 461.863 L 403.618 461.863 C 389.41 472.128 374.102 480.962 357.905 488.156 L 328.703 457.165 L 328.703 457.102 L 249.641 373.198 L 249.641 372.796 L 277.9 327.991 L 283.277 333.439 L 283.293 333.352 Z" style="fill: rgb(167, 170, 173);"/>
  </g>
</svg>