<?xml version="1.0" encoding="utf-8"?>
<svg xmlns="http://www.w3.org/2000/svg" width="64px" height="64px" viewBox="0 0 64 64">
  <path d="M 16 4.287 C 37.333 -8.03 64 7.366 64 32 C 64 43.433 57.901 53.997 48 59.713 C 26.667 72.03 0 56.634 0 32 C 0 20.568 6.099 10.003 16 4.287 Z M 16.96 58.05 C 37.013 69.628 62.08 55.156 62.08 32 C 62.08 21.253 56.347 11.323 47.04 5.95 C 26.987 -5.628 1.92 8.844 1.92 32 C 1.92 42.747 7.653 52.677 16.96 58.05 Z M 59.774 31.995 C 59.774 40.36 56.075 47.862 50.222 52.954 L 39.3 52.954 C 57.751 37.458 56.139 24.234 56.139 24.234 L 56.101 24.234 C 55.663 17.173 50.453 11.589 44.067 11.589 C 37.684 11.589 32.472 16.605 32.037 23.67 L 31.989 23.67 C 31.548 16.609 26.338 11.589 19.955 11.589 C 13.57 11.589 8.359 17.173 7.923 24.234 L 7.882 24.234 C 7.882 24.234 6.273 37.43 24.669 52.904 L 13.73 52.904 C 7.911 47.813 4.235 40.334 4.235 31.995 C 4.235 16.659 16.669 4.226 32.005 4.226 C 47.341 4.226 59.774 16.659 59.774 31.995 Z M 32.005 59.764 C 28.483 59.764 25.114 59.107 22.014 57.912 L 31.254 57.912 C 31.264 57.92 31.276 57.929 31.288 57.937 L 21.402 38.818 L 21.426 38.818 C 18.603 34.208 19 31.003 19 31.003 L 19.025 31.003 C 19.261 27.26 22.076 24.303 25.524 24.303 C 28.974 24.303 31.79 26.962 32.025 30.705 L 32.057 30.705 C 32.292 26.962 35.107 24.303 38.556 24.303 C 42.006 24.303 44.821 27.26 45.056 31.003 L 45.082 31.003 C 45.074 31.003 45.472 34.243 42.592 38.899 L 32.75 57.93 C 32.764 57.92 32.779 57.91 32.794 57.9 L 32.755 57.962 L 41.867 57.962 C 38.802 59.126 35.478 59.764 32.005 59.764 Z" style="fill: rgb(247, 7, 118);" id="object-0"/>
</svg>