<?xml version="1.0" encoding="utf-8"?>
<svg xmlns="http://www.w3.org/2000/svg" width="64px" height="64px" xmlns:bx="https://boxy-svg.com" viewBox="0 0 64 64">
  <g id="object-2" transform="matrix(0.996331, 0, 0, 0.996331, 0.117411, 0.117409)">
    <path d="M 32 32 m -31.616 0 a 31.616 31.616 0 1 0 63.232 0 a 31.616 31.616 0 1 0 -63.232 0 Z M 32 32 m -24.32 0 a 24.32 24.32 0 0 1 48.64 0 a 24.32 24.32 0 0 1 -48.64 0 Z" bx:shape="ring 32 32 24.32 24.32 31.616 31.616 1@2d46511f" style="fill: rgb(25, 25, 112);" id="object-0"/>
    <path d="M 13.093 56.358 L 13.094 56.358 L 18.444 43.72 L 18.453 43.72 C 18.959 42.646 19.501 42.274 19.913 43.027 C 20.015 43.213 20.1 43.453 20.171 43.737 L 20.18 43.737 L 21.166 52.414 L 19.192 57.079 L 19.191 57.079 L 17.856 60.308 C 16.06 59.402 14.362 58.331 12.781 57.113 L 12.796 57.079 L 12.789 57.079 L 13.079 56.394 L 13.093 56.358 Z M 21.021 34.314 L 21.005 34.339 L 17.623 3.949 L 17.618 3.949 L 17.611 3.886 C 17.612 3.885 17.614 3.884 17.615 3.883 L 17.614 3.874 L 17.633 3.874 C 19.638 2.838 21.767 2.011 23.993 1.423 L 24.919 46.793 L 29.3 37.747 C 29.326 37.716 29.353 37.686 29.379 37.657 C 30.125 36.859 31.089 37.176 31.983 38.202 L 32.023 38.199 L 34.856 41.07 L 28.729 50.786 C 26.893 53.395 25.341 55.016 23.939 53.671 C 23.411 53.165 23.173 52.359 22.982 51.378 L 21.257 36.195 L 21.23 36.198 L 21.021 34.314 Z M 54.542 9.846 L 54.55 9.846 L 35.957 39.326 L 30.978 34.281 L 45.824 3.62 C 49.079 5.194 52.023 7.308 54.542 9.846 Z M 50.547 57.677 L 50.452 57.677 C 48.69 58.951 46.79 60.046 44.782 60.939 L 41.159 57.094 L 41.159 57.086 L 31.351 46.678 L 31.351 46.629 L 34.857 41.07 L 35.524 41.747 L 35.526 41.736 L 50.547 57.677 Z" style="fill: rgb(173, 16, 23);" id="object-1"/>
  </g>
</svg>